<?xml version="1.0" encoding="utf-8"?>
<!-- Generator: Adobe Illustrator 26.5.0, SVG Export Plug-In . SVG Version: 6.00 Build 0)  -->
<svg version="1.1" id="Layer_1" xmlns="http://www.w3.org/2000/svg" xmlns:xlink="http://www.w3.org/1999/xlink" x="0px" y="0px"
	 viewBox="0 0 1280 960" style="enable-background:new 0 0 1280 960;" xml:space="preserve">
<style type="text/css">
	.st0{fill:none;stroke:#000000;stroke-miterlimit:10;}
</style>
<path class="st0" d="M789.4,254.2c3.8,46.6-65,93.8-154,105.2c-88.8,11.6-164-17.1-167.8-63.7c-3.8-46.6,65-93.8,154-105.2
	C710.5,179.1,785.6,207.5,789.4,254.2z"/>
<path class="st0" d="M843.3,263.8c5.4,65.9-86.1,132.1-204.3,147.6c-118.3,15.3-218.5-25.5-223.9-91.7s86.1-132.1,204.3-147.6
	S837.9,197.6,843.3,263.8z"/>
<path class="st0" d="M887.7,273.4c7.1,84.9-102.5,168.7-244.6,186.9s-263-35.9-270.1-120.8c-7.1-84.9,102.5-168.7,244.6-186.9
	S880.6,188.4,887.7,273.4z"/>
<path class="st0" d="M931.3,290.1c8.9,107.3-118,211.6-283.3,232.8c-165.4,21.2-306.6-48.6-315.5-155.8s118-211.6,283.3-232.8
	S922.4,182.6,931.3,290.1z"/>
<path class="st0" d="M981.9,310c10.4,129.3-137.1,254.9-329.7,280.2s-357.1-59-367.5-188.3S421.8,147,614.4,121.7
	C806.8,96.2,971.4,180.7,981.9,310z"/>
<path class="st0" d="M1051.2,331.9c12.2,154-164.4,304.1-394.1,335.2C427.3,698.2,231.2,598.4,219,444.2s164.2-304.1,394.1-335
	S1039,178,1051.2,331.9z"/>
<path class="st0" d="M1126,360.1c14.2,183.1-192.7,361.3-462.6,397.8s-500-82-514.2-265.2S342,131.7,611.6,94.9
	S1111.6,176.9,1126,360.1z"/>
<path class="st0" d="M1222,398.5c17,220.8-229.5,435.8-550.5,480.2c-321,44.5-595.1-98.7-612.1-319.6S289,123.3,610,78.9
	S1205,177.5,1222,398.5z"/>
</svg>
